<svg width="32" height="32" viewBox="0 0 32 32" fill="none" xmlns="http://www.w3.org/2000/svg">
<path d="M3.95312 6.5C3.1247 6.5 2.45312 7.17157 2.45312 8C2.45312 8.82843 3.1247 9.5 3.95312 9.5V6.5ZM27.6732 9.5C28.5017 9.5 29.1732 8.82843 29.1732 8C29.1732 7.17157 28.5017 6.5 27.6732 6.5V9.5ZM3.95312 9.5H27.6732V6.5H3.95312V9.5Z" fill="#E97522"/>
<path d="M3.95312 14.5C3.1247 14.5 2.45312 15.1716 2.45312 16C2.45312 16.8284 3.1247 17.5 3.95312 17.5V14.5ZM27.6732 17.5C28.5017 17.5 29.1732 16.8284 29.1732 16C29.1732 15.1716 28.5017 14.5 27.6732 14.5V17.5ZM3.95312 17.5H27.6732V14.5H3.95312V17.5Z" fill="#E97522"/>
<path d="M3.95312 22.5C3.1247 22.5 2.45312 23.1716 2.45312 24C2.45312 24.8284 3.1247 25.5 3.95312 25.5V22.5ZM27.6732 25.5C28.5017 25.5 29.1732 24.8284 29.1732 24C29.1732 23.1716 28.5017 22.5 27.6732 22.5V25.5ZM3.95312 25.5H27.6732V22.5H3.95312V25.5Z" fill="#E97522"/>
</svg>
